<?xml version="1.0" encoding="UTF-8"?><svg id="a" xmlns="http://www.w3.org/2000/svg" viewBox="0 0 16 16"><defs><style>.b{fill:#6f018a;}.c{fill:#02113b;}.d{fill:#f4258a;}.e{fill:#03d2b6;}.f{fill:#f7611c;}.g{fill:#9a1063;}.h{fill:#f8bf1f;}.i{fill:#77055a;}.j{fill:#e92133;}.k{fill:#0195ad;}.l{fill:#013375;}.m{fill:#005c8b;}.n{fill:#017da3;}.o{fill:#920122;}.p{fill:#f9841f;}.q{fill:#c41f1a;}.r{fill:#762053;}.s{fill:#f9a51c;}.t{fill:#011e5b;}.u{fill:#cb1962;}.v{fill:#c30169;}.w{fill:#e83c16;}.x{fill:#0488c2;}.y{fill:#c91a72;}.z{fill:#02eaed;}.aa{fill:#cb5595;}.ab{fill:#3d018a;}.ac{fill:#54fbda;}.ad{fill:#07c7dd;}</style></defs><path class="c" d="M7.442,11.941c.077.009.19-.024.251.028,0,.028,0,.056,0,.084-.12-.049-.262-.027-.39-.028v-.056c.007-.001.019-.021.028-.028.037,0,.074,0,.111,0Z"/><path class="t" d="M7.721,11.802c.004.126-.289.1-.322.057-.029-.037-.105-.889-.098-.936.01-.058.132-.113.167-.095.054.029.113.615.252.667.003.099.007.208,0,.306Z"/><path class="m" d="M7.247,9.408l.084,1.309c-.071.017-.083.025-.167.028l-.084-1.281c.064-.032.128-.037.167-.056Z"/><path class="t" d="M7.47,9.296c-.019.184.055,1.371-.005,1.416-.026.019-.1-.004-.135.004l-.084-1.309c.055-.026.129-.127.223-.111Z"/><path class="i" d="M7.442,11.941c-.028,0-.056,0-.084,0h.084Z"/><path class="k" d="M7.386,4.619c.01.008.018.02.028.028-.038.033-.06.068-.084.111-.094-.013-.263-.062-.278-.167.063.001.299,0,.334.028Z"/><path class="e" d="M8.603,2.504c-.346.641-.693,1.282-1.039,1.923-.143-.074-.287-.148-.43-.223l.47-1.395.999-.306Z"/><path class="c" d="M8.702,1.163c.005-.002.02-.006.033.002.002,0,.003.002.005.004,0,0,0,.001,0,.002.039.122.044.224.046.3.002.089.005.213-.009.386-.008.096-.019.177-.036.307-.011.082-.021.151-.029.199l-.046.106h-.039s-.016-.101-.016-.101c.03-.402.061-.804.091-1.206Z"/><polygon class="c" points="1.512 11.914 1.623 12.136 4.4 12.207 4.379 11.997 4.027 11.699 1.512 11.914"/><ellipse class="m" cx="4.338" cy="9.916" rx="1.095" ry=".62"/><path class="ad" d="M4.964,2.725l-.028.362c.01.047.019.119-.002.2-.029.109-.093.157-.175.282-.078.118-.127.223-.131.256-.021.171.228.507.248.676.042.636-1.746,3.886-1.888,4.74-.006.025-.047.086-.027.11.05.024.573.158.695.168.002,0,0,.002-.001.005-.003.019.085.051.085.051.048.017.164.077.468.267-.359.265-.73.531-1.113.798-.432.301-.858.588-1.277.862.188-.25.412-.604.589-1.059.135-.347.209-.665.25-.924.073-.04.166-.098.156-.129-.008-.025-.09.023-.148-.035-.022-.022-.227-.28-.23-.298-.01-.072.098-.13.101-.169.007-.094-.055-.172-.032-.28.87-1.932,1.551-3.954,2.46-5.881Z"/><path class="e" d="M8.67,2.383c-.028.037-.056.077-.084.119-.032.048-.06.094-.086.139-.004-.005-.02.004-.028,0-.003-.002.013-.087-.041-.055-.04.023-.036.101-.047.106-.383.146-.245.402-.594.533-.057.079-.078.292-.153.404-.202.3-.558.351-.223.738-.033-.067-.177-.139-.223-.195-.528-.689-1.289-1.083-1.475-1.818.24-.021.002-.648.501-.817.403-.197.797-.099,1.098-.038.519.014,1.042.101,1.407-.335.011.173.015.363.008.567-.009.238-.031.455-.06.65Z"/><path class="z" d="M5.66,1.138c.081.028.581.369.585.404.01.087-.621,1.271-.557,1.517-.158.362-.327.722-.473,1.086-.086.205-.239.419-.251.64h-.028l-1.253,2.951c-.081.04-.08.128-.111.195-.199.426-.398.882-.585,1.309.14-.847,1.933-4.11,1.888-4.74-.005-.064-.316-.361-.247-.676.017-.079.041-.126.114-.306.087-.216.147-.394.183-.508.013-.095.026-.191.039-.286.095-.217.579-1.527.696-1.587Z"/><path class="ac" d="M6.245,1.542c-.004-.035-.504-.376-.585-.404.349-.002,2.989-.107,3.063.028-.365.436-.888.349-1.407.335-.237-.048-.594-.14-.987,0"/><path class="c" d="M4.491,11.969h1.169c-.356.126-.922-.052-1.225.139.031-.061-.053-.052.056-.139Z"/><path class="c" d="M6.523,11.969l.056.056c-.38,0-.762-.002-1.142,0,.341-.119.728-.043,1.086-.056Z"/><path class="c" d="M6.607,11.969c.195,0,.522.029.696,0v.056c-.241-.002-.483,0-.724,0l-.056-.056c.028,0,.056,0,.084,0Z"/><path class="x" d="M1.985,9.714c-.021.075-.026.267-.111.251.035-.085.077-.167.111-.251Z"/><path class="r" d="M4.379,12.22l.028-.028c-.006.012-.024.021-.028.028Z"/><path class="r" d="M4.352,12.276c.002-.008.021-.018.028-.028-.005.009-.021.018-.028.028Z"/><path class="n" d="M3.126,8.934c.103.039.402.396.251.473l.222.112c-.716-.23-.758.015-.473-.585Z"/><path class="n" d="M3.377,9.213l.835.557v.028c-.005.003-.013.018-.028.028-.019-.016-.037-.042-.056-.056-.142-.027-.249-.147-.39-.195.026-.097-.081-.044-.139-.056,0,0-.222-.112-.222-.112.08-.04.037-.107,0-.194Z"/><path class="ad" d="M4.157,9.798c.009.009.018.019.028.028-.698.519-1.579,1.166-2.311,1.726l.028-.111c.67-.576,1.683-.948,2.2-1.671.025-.005.039.009.056.028Z"/><path class="n" d="M3.655,9.519c.066-.001.097-.019.084.056-.115-.047-.077-.053-.084-.056Z"/><path class="n" d="M5.744,2.976c-.162.261,1.227,1.143,1.435,1.364l.013-.167c.046.067.226.13.223.223-.038.094-.055.098-.153.111-.236.031-1.497.067-1.697.026-.164-.034-.467-.254-.322-.444.11.033.127-.098.028-.084.159-.339.284-.71.473-1.03Z"/><path class="n" d="M5.8,2.582c.224.299.498.628.83.965.355.36.703.654,1.018.892-.038-.003-.094-.008-.16-.017-.144-.02-.585-.096-1.073-.43-.462-.316-.651-.664-.686-.761-.032-.088-.046-.175-.046-.175-.012-.072-.013-.133-.012-.178.043-.099.086-.198.13-.297Z"/><path class="m" d="M4.212,9.853c.29-.05.695-.087,1.17-.024.322.043.595.121.812.2-.413.51-.727.612-.947.6-.157-.009-.451-.085-.503.015-.013.024-.008.052-.002.071-.202-.232-.271.346-.376.362-.106.016-.006-.29-.125-.278.081.341-.099.588-.109.928-.14.171-.514.026-.531.269-.318.005-.643.006-.975.003-.292-.003-.578-.009-.86-.017.022-.126.071-.311.192-.497.173-.266.342-.303.883-.669.346-.234.312-.243.83-.6.222-.153.409-.277.542-.363Z"/><path class="t" d="M.968,13.752c.083.385.028.702-.075.831-.097.121-.214.168-.214.168-.046.019-.087.026-.114.03.733,0,1.466,0,2.199,0l-2.283.056c-.068-.097-.034-.104,0-.223.162-.288.325-.575.487-.863Z"/><path class="x" d="M1.093,13.475c-.158.346-.408.827-.52,1.17l-.195.13c.069-.241.46-1.004.599-1.238.037-.062.025-.077.116-.062Z"/><path class="ad" d="M1.874,11.552c-.123.089-.244.185-.362.278-.237-.014.342-.35.39-.39l-.028.111Z"/><path class="c" d="M7.247,11.217c.023.023.071.61-.026.628l-2.422-.033.068-1.096c.129-.012.288.213.307.219.021.007.333-.018.441.006.205.047.408.123.618.161.151.027.977.079,1.013.114Z"/><path class="m" d="M7.08,9.463l.084,1.281c-.33.009-.715-.027-1.058-.028-.034-.131-.366-.029-.445-.028-.216,0-.404-.037-.613-.028l-.028-.084c.547-.175,1.49-.824,2.06-1.114Z"/><path class="m" d="M3.6,11.997c.017-.244.391-.098.531-.269.011-.34.191-.586.109-.928.011-.001.021,0,.029.005.085.045.08.269.073.27-.005,0-.019-.083-.023-.128-.013-.138.03-.302.115-.397.134-.151.421-.179.681-.036-.038.209-.113.498-.272.813-.15.296-.324.518-.463.67-.258-.072-.523-.008-.779,0Z"/><path class="c" d="M6.523,11.941l.084.028c-.581-.012-1.527.004-2.116,0,.019-.015.012-.046.066-.053.483-.062,1.432.02,1.966.025Z"/><path class="c" d="M7.331,11.941c-.135.094-.537.012-.724.028,0,0-.084-.028-.084-.028.269.003.536-.005.807,0Z"/><path class="l" d="M3.154,11.997c-.046,0-.093,0-.139,0h.139Z"/><path class="t" d="M5.187,10.661c-.019,0-.032.001-.056,0h.056Z"/><path class="t" d="M4.797,10.661l.028-.028c-.005,0-.017.022-.028.028Z"/><path class="n" d="M6.05,7.876c-.185.414-.287.867-.529,1.253-.031.025-.078.054-.137.057-.181.009-.305-.242-.455-.423-.129-.156-.343-.34-.717-.469-.113-.094-.539-.363-.555-.393-.017-.032.031-.119.026-.164l1.253-2.951,1.114,3.091Z"/><path class="n" d="M4.212,8.294c.402.333.813.653,1.225.975-.413.153-.833.298-1.225.501l-.835-.557c-.03-.07-.172-.254-.251-.278.138-.337.293-.672.445-1.002.221.098.434.236.64.362Z"/><path class="k" d="M7.052,4.591c.015.105.184.154.278.167-.464.852-.901,2.182-1.281,3.118l-1.114-3.091h.028c.002.022.15.385.164.401.019.021.253-.079.269-.093.065-.057.087-.185.136-.226.08-.067.312-.112.349-.249.389-.014.78-.037,1.169-.028Z"/><path class="k" d="M5.215,4.145c-.069.173.208.36.35.388.2.04,1.461.005,1.697-.026.098-.013.115-.017.153-.111.006.015.024.042.028.056.055.006.103.03.111.062.01.042-.044.111-.147.132-.193-.084-.609-.054-.784.026-.333.108-1.066.039-1.629-.024.031-.148.162-.355.223-.501Z"/><path class="k" d="M5.883,4.619c-.037.137-.27.182-.349.249-.049.041-.071.169-.136.226-.016.014-.25.114-.269.093-.014-.016-.162-.379-.164-.401-.007-.065.018-.092.028-.139.298.009.594-.017.891-.028Z"/><path class="n" d="M5.27,4.006c.099-.015.082.116-.028.084.011-.026.016-.056.028-.084Z"/><path class="ad" d="M4.157,9.798c-.009-.009-.019-.018-.028-.028.009.004.019.021.028.028Z"/><path class="n" d="M4.212,9.853h-.028s-.004-.025,0-.028c.03-.026.02-.031.056-.028l-.028.056Z"/><path class="t" d="M7.616,4.393c.037.017-.289.863-1.911,4.564-.044.025-.089.05-.133.075.205-.62.488-1.4.871-2.281.495-1.14,1.127-2.379,1.173-2.358Z"/><path class="t" d="M5.688,8.879c.002.024-.015.076.015.085.136.042.858-.006,1.07-.002-.402.121-.936-.127-1.253.167.045-.061.113-.184.139-.25h.028Z"/><polygon class="t" points="1.614 12.422 .323 14.836 3.229 14.873 1.614 12.422"/><path class="x" d="M3.791,5.509c.01.004-.415,1.038-.633,1.562-.242.583-.464,1.099-.654,1.535.024.058.056.152.061.27.008.184-.056.252-.003.327.063.09.211.073.251.186.005.014.007.026.007.032-.1.329-.225.686-.383,1.064-.157.375-.322.712-.485,1.012-.071.231-.185.572-.357.973-.173.404-.317.629-.501,1.03-.204.445-.408.891-.613,1.336-.078,0-.157.002-.236,0-.081,0-.161-.002-.237,0,.359-1.688,1.355-3.219,1.865-4.873,1.532-3.598,1.909-4.459,1.918-4.455Z"/><path class="n" d="M5.8,2.591l-.146.333.037.132-.492,1.119c.785.084,1.569.168,2.354.252l-1.754-1.836Z"/><path class="k" d="M7.557,4.429c-.004.022-.009.043-.013.065-.493,1.12-.986,2.241-1.479,3.361-.376-1.023-.752-2.045-1.129-3.068.097-.225.194-.45.291-.675.777.105,1.554.211,2.331.316Z"/><path class="n" d="M4.927,4.802l-1.982,4.558,1.229.488,1.367-.72c.174-.425.348-.85.523-1.275l-1.137-3.051Z"/><path class="m" d="M7.202,9.361l.088,1.485-2.769-.116c.894-.456,1.787-.912,2.681-1.369Z"/><path class="l" d="M1.736,12.121l-.122.302,1.615,2.45.036-.035c.378-.877.756-1.754,1.134-2.63-.888-.029-1.776-.057-2.664-.086Z"/><path class="c" d="M4.4,12.207l.2-.178c1.037.01,2.074.019,3.11.029.015-.085.031-.169.046-.254-.031-.852-.061-1.704-.092-2.556l-.13.013-.287.147-.238,1.209-.222.132-2.044-.104-.364,1.352.021.209Z"/><path class="ad" d="M4.02,9.872l1.693-.919c.601-.013,1.203-.026,1.804-.039.006.119.012.237.018.356-.505.262-1.011.524-1.516.786l-1.999-.183Z"/><polygon class="c" points="3.229 14.873 3.321 14.866 4.6 12.029 4.491 11.969 3.229 14.873"/><path class="c" d="M0,14.87l3.302.041.019-.046c-1.102-.019-2.205-.038-3.307-.057-.005.02-.009.041-.014.061Z"/><path class="f" d="M9.852,4.779c.099-.311.249-.483.368-.584.242-.204.54-.261.529-.381-.004-.044-.05-.078-.143-.145-.098-.071-.151-.074-.259-.151-.038-.027-.063-.049-.121-.103-.149-.138-.224-.207-.306-.291-.1-.103-.359-.352-1.068-1.002-.058.016-.137.04-.226.08-.058.026-.248.114-.446.299-.075.07-.171.171-.263.31-.142.24-.25.412-.337.544-.058.088-.143.213-.19.401-.014.058-.023.112-.025.135-.024.29.544.72,1.104.896.571.179,1.088.079,1.383-.009Z"/><path class="h" d="M10.433,2.959c.114.098.358.337.366.654.001.057.004.152-.049.182-.075.042-.212-.053-.474-.289-.171-.154-.4-.371-.657-.652-.265-.251-.53-.502-.795-.752.45-.099.646-.017.741.084.128.138.076.321.295.638.088.128.153.18.232.203.153.045.297-.039.342-.068Z"/><path class="d" d="M7.53,9.065c1.113.32,1.696,1.789,1.538,1.913-.138.108-1.008-.682-1.575-1.503-.124-.179-.22-.341-.291-.469.074.006.192.02.329.059Z"/><path class="f" d="M15.85,7.192c-.023.697-.034,1.521-.026,2.235,0,.265-.008.558.026.815,0,0-.052,1.262-.052,1.262-.314-.445-1.732-1.838-2.051-2.05v-.026c.032-.003.052-.016.079-.026.27-.008.576.015.841.026.15.178.437.208.606.275.074.029.176.148.262.161.096.015.194-.088.21-.068.021.027-.048.153.053.131v-.5c0-.034-.613-.024-.684-.026-.395-.058-.51-.169-.539-.263-.032-.102.019-.241-.072-.323-.032-.029-.054-.025-.098-.048-.116-.061-.162-.187-.198-.286-.1-.275-.055-.587-.039-.684.25.08.405.541.499.789.004.011.023.066.036.064.017-.003.011-.104.011-.121-.003-.102.079-.297.453-.706.016-.011.088.038.104.027.027-.018.263-.507.316-.579.036-.003.078-.01.124-.023.056-.016.103-.036.139-.056Z"/><path class="u" d="M9.883,6.797c.012,1.182-.066,2.447,0,3.616.002.033.023.407.106.328.108.516.373.919.894,1.078-.044.039-.11.088-.199.117-.348.116-.82-.134-1.032-.476-.253-.408-.153-.971-.061-1.49.006-.032.023-.124.037-.253.014-.137.01-.19.02-.305.007-.078.021-.191.053-.328.117-.22-1.762-1.648-1.945-1.972.069.027.139.075.149.077.095.02.659.045.751.021.221-.059.335-.305.52-.44.123.001.243.043.368.026.025-.107-.119-.004-.105-.091.183-.156-.012-.347.21-.592.095.195.071.507.237.684Z"/><path class="h" d="M10.592,1.198c2.028-.464,4.297.586,5.205,2.445-.133.004-.261-.022-.394-.026-.262-.494-.502-.62-.678-.636-.187-.017-.402.079-.618-.056-.085-.053-.083-.087-.168-.141-.184-.115-.368-.063-.575-.052-.549.029-.696-.259-1.474-.247-.026,0-.048.001-.062.002l-.026-.473c-.359-.263-.719-.526-1.078-.789.041.199.076.413.101.641.063.579.045,1.099-.004,1.533-.136.059-.2.043-.233.018-.12-.09.053-.381.063-.922.006-.323-.054-.287-.026-.509,0,0,.06-.468.035-.708,0-.005-.002-.016-.067-.08Z"/><path class="d" d="M7.766,9.534c.129.055,1.783.753,1.826.778.003.002.018.011.032.021.029.019.036.025.04.033.009.017.005.036.004.042-.027.137.014.279.011.418-.004.165.027.461.12.611.246.398.909.389,1.083.382.464.142.898.063,1.314-.158v.026c-.057.026-.239.115-.184.158h1.288c-.092.1-.221.221-.392.333-.135.088-.262.15-.37.193-.165.059-.079.029-.184.158-.308.014-.572.013-.777.006-.515-.016-.694-.062-.839-.117-.126-.048-.226-.103-.327-.159-.077-.042-.285-.147-.515-.344-.357-.307-.747-.677-1.141-1.118-.396-.443-.722-.872-.989-1.262Z"/><path class="o" d="M13.695,9.426v.053c-.032-.003-.045-.003-.05.002-.013.015-.004.045-.003.05.015.052.049.756.096,1.887.047.019.066.057.057.077-.009.02-.046.021-.049.021.008.036-.005.072-.031.091-.035.026-.093.017-.125-.026-.25-.094-.675-.16-.946-.263.22-.286.112-.627.131-.973.012-.219.045-.51.105-.722-.033-.056-.085-.032-.132-.04h-.053c-.34-.009-.685.01-1.025,0l.039-.105c.511-.052,1.492-.085,1.986-.052Z"/><path class="p" d="M15.456,7.06c-.013.025-.037.082-.026.105-.37-.01-.762.013-1.172.084-.039.007-.078.014-.116.021.467-.03.985.042,1.446,0-.104.267-.225.455-.316.579-.088.118-.154.185-.297.374-.114.15-.2.278-.254.362h-.053c-.094-.248-.249-.709-.499-.789,0-.03,0-.074,0-.105-.013-.156.056-.307-.158-.315.008-.08-.002-.08-.079-.105-.508.172-.905.167-.998,0-.02-.037-.038-.103.006-.223.026-.027.05-.036.067-.038.028-.004.049.007.091,0,.015-.003.026-.007.029-.008.178-.063.488-.046.488-.046.215.012.904.044,1.84.105Z"/><path class="p" d="M15.509,7.165s-.047.071-.079,0c.021-.005.071.006.079,0Z"/><path class="p" d="M9.91,1.476c.145-.017.34-.027.349.01.012.047-.244.134-.781.375-.217.097-.238.114-.42.194-.288.127-.352.143-.495.216-.119.061-.614.534-.663.522-.011-.003-.035-.014-.053-.076.197-.263.393-.446.533-.563.166-.139.737-.587,1.53-.679Z"/><path class="v" d="M15.825,12.479h-.026c-.005-.007-.01-.012-.016-.013-.053-.016-.167.17-.339.558-.284.505-.685.791-.924.707-.316-.111-.42-1.04-.069-1.324.214-.173.448.013.701-.211.165-.146.188-.333.456-.515.069-.047.13-.077.17-.095.019-.002.038-.014.053-.026h.026c-.008.297.033.631-.03.92Z"/><path class="aa" d="M13.616,6.955c-.026.017-.067.042-.122.059-.122.039-.169-.003-.304.021-.015.003-.209.039-.247.144-.005.014-.017.049.001.072.016.02.045.02.053.019h.605c.063-.005.131-.009.204-.01.056,0,.11.001.161.004.007.003.027.014.038.038.017.037-.003.072-.005.075-.003.005-.005.01-.008.015,0,0-.016.009-.034.006-.023-.003-.044-.027-.051-.058-.34-.009-.689-.014-1.048-.012-.362.001-.715.009-1.057.021-.11-.02-.711-.369-.789-.342l2.603-.053Z"/><path class="r" d="M11.255,4c.18-.026.329.032.6.142.065.026.145.061.237.105.915.648.287,1.059,1.157,1.025.481-.002.964.004,1.446,0,.135-.001,1.05.022,1.078-.026.008-.013-.002-.122,0-.158h.026c-.005.069.004.141,0,.21l-3.033.023c-.489-1.843-2.753-1.409-2.83.424-.015.203.005.425,0,.631-.005.162-.011.324-.016.485-.013-.022-.026-.043-.039-.065-.008-.193-.016-.386-.023-.578-.031-.189-.12-.866.259-1.461.098-.154.312-.489.721-.638.09-.033.168-.049.223-.058.047-.024.113-.05.195-.062Z"/><path class="c" d="M7.306,11.556c.006.034.012.067.018.101.059.143.117.286.176.429.089.316.276.819.687,1.316.622.754,1.386,1.045,1.722,1.151-.002.042-.004.084-.006.127-.576-.143-.993-.372-1.252-.541-.19-.124-.43-.282-.673-.565-.26-.302-.383-.58-.513-.88-.116-.269-.258-.663-.343-1.164.006,0,.012.002.184.026Z"/><path class="c" d="M12.751,14.755c.003.012,0,.031-.029.06-.459.062-.849.084-1.143.092-.307.008-.598.004-.906-.035-.186-.024-.337-.055-.483-.096-.138-.039-.252-.082-.336-.116.018-.036.037-.072.055-.108.238.068.612.157,1.076.189.909.064,1.735-.117,1.766.013Z"/><path class="v" d="M12.643,11.319c.131.048.288.095.469.13.208.039.395.051.55.051-.03.049-.073.107-.137.162-.023.02-.045.037-.067.051l-1.011-.108c-.093,0-.17.044-.251.082v-.026c.096-.051.387-.264.447-.342Z"/><path class="s" d="M10.592,1.198c.028.027.064.032.067.08.015.214-.002.48.012.709.002.028.004-.158-.087-.239-.296-.259-1.635.522-1.726.412-.003-.004-.024-.032-.061-.06-.053-.04-.083-.037-.089-.05-.027-.059.45-.431,1.162-.674.289-.098.541-.15.723-.178Z"/><path class="c" d="M15.793,12.458c.007-.076.013-.114.018-.114.006,0,.011.043.016.128-.234.43-.773,1.271-1.801,1.852-.487.275-.948.416-1.305.491.026-.055-.086-.079-.105-.079v-.026c.331-.079.715-.205,1.12-.409,1.086-.546,1.73-1.355,2.056-1.844Z"/><path class="r" d="M11.066,9.348c.005.058-.028.175.043.207.049.022.47.026.561.03.358.009.72-.009,1.078,0,.047.008.098-.016.132.04-.061.212-.093.503-.105.722-.012-.053.009-.71-.026-.71h-1.564c-.193,0-.162-.164-.171-.289h.053Z"/><path class="s" d="M15.824,7.139c.013.012.02.027.02.027.013.031.001.061-.002.067-.078.014-.19.031-.327.043-.062.005-.12.009-.173.011-.136.005-.246.003-.306,0-.019,0-.033-.001-.037-.002-.096-.005-.364-.008-1.009-.006-.008-.005-.016-.01-.023-.015.83-.125,1.437-.211,1.47-.208.016.001.032.003.032.003.032.004.049.009.124.017.117.012.204.036.232.062Z"/><path class="u" d="M9.935,9.453c.007.43-.04.867.053,1.288-.083.079-.104-.295-.106-.328-.065-1.168.013-2.434,0-3.616h.026c-.001.886-.001,1.77.026,2.655Z"/><path class="c" d="M11.066,9.348h-.053c0-.25-.097-2.294.026-2.34.061.762-.035,1.586.026,2.34Z"/><path class="r" d="M9.935,9.453c-.007-1.022-.076-2.061,0-3.076-.025,1.024.019,2.052,0,3.076Z"/><path class="f" d="M15.798,3.774c-.002.356.003.959,0,1.314h-.026c-.045-.49-.064-.957-.026-1.446.009,0,.018,0,.026,0l.026.131Z"/><path class="q" d="M13.747,9.453c.32.213,1.736,1.604,2.051,2.05l.052-1.262c.002.219.003.438.004.657,0,.221.001.441.002.662-.011-.002-.021-.003-.032-.005-.298-.218-1.948-2.029-2.129-2.051v-.053c.016.003.042-.005.053,0Z"/><path class="aa" d="M15.798,4.773v-.736c.01.242.004.493,0,.736Z"/><path class="aa" d="M15.824,9.163c-.001-.105.001-.211,0-.315v.315Z"/><path class="aa" d="M15.824,8.138c0-.07,0-.14,0-.21v.21Z"/><path class="aa" d="M15.824,9.952c0-.053,0-.105,0-.158v.158Z"/><path class="f" d="M15.798,3.774l-.026-.131h.026c.008.037-.004.09,0,.131Z"/><path class="aa" d="M9.935,5.746v-.079c-.002.026.002.053,0,.079Z"/><path class="s" d="M15.85,7.192h-.026v-.053c.027.022.021.02.026.053Z"/><path class="aa" d="M9.935,10.347v-.053c.001.017-.001.035,0,.053Z"/><path class="aa" d="M15.824,9.426v-.026c0,.009,0,.018,0,.026Z"/><path class="c" d="M11.013,9.426c-.001-.008,0-.018,0-.026v.026Z"/><path class="aa" d="M15.824,8.69v-.026c0,.009,0,.018,0,.026Z"/><path class="aa" d="M15.798,3.853v-.026c0,.009,0,.018,0,.026Z"/><path class="y" d="M12.801,7.323c.039.157-.169.018-.157.118.018.149.318.205.33.222.182.24-.3.653.379.212.216-.14.419-.301.631-.447.028.359.051.824,0,1.183-.006.118-.003.732-.026.762-.004.005-.079.008-.131.026-.042.015-.074.024-.079.026-.302.116-.826.049-.826.049-.796-.103-.922.061-1.12-.075-.543-.374-.043-1.92,0-2.051.15-.012.306-.021.469-.025.185-.005.362-.005.53,0Z"/><path class="f" d="M13.976,7.364c.05,0,.118.009.163.057.073.078.028.216.029.27.004.157.005.678.039.789.005.009.08.073.156.135.112.092.131.088.164.125.078.088.021.299.073.402.046.092.221.155.738.075-.062.086-.217.276-.486.368-.5.172-.938-.148-.979-.18.069-.349.119-.748.124-1.188.001-.134-.001-.263-.007-.387.005-.074.006-.155.004-.242-.002-.081-.008-.156-.016-.225Z"/><path class="f" d="M15.114,9.4c.07.002.684-.008.684.026v.5c-.101.022-.032-.105-.053-.131-.016-.02-.113.082-.21.068-.086-.013-.188-.132-.262-.161-.169-.067-.456-.096-.606-.275.155.002.295-.031.447-.026Z"/><path class="f" d="M13.984,8.611c.074.063-.037.276.079.263.025-.113-.021-.43.079-.473l-.026.999h-.289c.052-.019.127-.021.131-.026.024-.03.02-.644.026-.762Z"/><path class="p" d="M14.72,8.585c-.01.012,0,.138-.053,0h.053Z"/><path class="q" d="M13.747,9.426v.026c-.01-.005-.037.003-.053,0v-.026c.017,0,.035.002.053,0Z"/><path class="u" d="M7.333,6.64c-.019.09.089.041.132.052.007.004-.011.092.003.101.274.177.649.296.977.182.082-.028.142-.18.243-.204.096-.023.366-.002.485,0-.185.135-.299.381-.52.44-.092.025-.657,0-.751-.021-.044-.02-.125-.093-.227-.077-.014-.029.055-.205-.079-.131-.127-.122-.299-.202-.394-.368.041.004.094.011.131.026Z"/><path class="u" d="M7.201,6.613c.091.077.238.199.424.346.415.327.532.387.763.595.352.316.237.318.521.552.361.298.632.366.759.679.044.11.055.21.057.273-.045-.003-.179-.018-.302-.124-.131-.112-.163-.255-.171-.297-.027-.033-.071-.081-.131-.131-.117-.097-.227-.141-.243-.148-.124-.054-.562-.457-1.702-1.666-.008-.009-.022-.026-.025-.052-.001-.013.002-.02,0-.027h.053Z"/><path class="y" d="M9.646,9.742c.118-.021.028.178.026.237h-.026c-.003-.078.004-.158,0-.237Z"/><path class="s" d="M10.777,2.013c.2.232.218.117.458.16.261.047.341.187.567-.107.002.022.003.043.026.053-.003.104-.004.213-.002.326.002.103.006.203.012.299-.009.125-.015.257-.017.395-.002.158,0,.307.008.448-.616.119-.871.188-.952.229-.016.008-.072.039-.12.018-.034-.015-.051-.051-.073-.096-.023-.049-.034-.092-.039-.121,0-.075.004-.18.015-.305.01-.123.025-.238.043-.345.034-.131.065-.291.079-.476.014-.182.008-.344-.005-.478Z"/><path class="s" d="M10.777,2.013c-.001-.105-.085-.757-.053-.789.039-.038,1.04-.091,1.078-.053.023.193-.011.667,0,.894-.226.294-.306.154-.567.107-.24-.043-.258.073-.458-.16Z"/><path class="ab" d="M7.411,11.556c-.022.088.084.044.158.053.682.079,1.47.36,2.103.026.042.035.086.075.131.119.05.049.094.098.132.144.201.183.52.437.789.5.469.877,1.21,1.58,1.84,2.34-1.601.223-3.339-.129-4.522-1.209-.179-.281-.374-.638-.541-1.068-.13-.336-.217-.648-.275-.919.039.008.084.014.133.015.018,0,.036,0,.053,0ZM9.699,14.395v-.565c-.159-.401-.77-.356-1.112-.466-.022-.006-.225-.23-.23-.086-.003.087,1.139,1.068,1.341,1.117Z"/><path class="v" d="M12.985,12.187c.366-.159.4-.467.68-.529.418-.093,1.036.436,1.02.889-.002.045-.009.083-.018.114-.181.339-.092.916.394.71-.343.384-.687.634-.936.789-.711.443-1.35.547-1.483.567-.033.005-.06.009-.079.011-.003-.019-.007-.047-.011-.081-.022-.164-.069-.522-.085-.889-.014-.324-.003-.982-.009-1.107-.003-.06.022-.091-.053-.079-.006-.019-.011-.038-.026-.053-.005-.009-.011-.018-.016-.026.012-.025.034-.061.073-.092.028-.022.054-.033.079-.043.076-.03.113-.044.179-.059.069-.015.14-.056.29-.121Z"/><path class="i" d="M7.096,9.085l.106.998c.417.088.198-.319.248-.42.059-.119.271.038.093-.236.436.437,1.697,1.731,2.103,2.156-.78.015-1.56-.019-2.34-.026-.043-.001-.136-.025-.184-.026-.005,0-.029-.026-.053-.026.155-.059.075-.085.079-.131,0-.761-.038-1.529-.053-2.287ZM7.254,10.136s-.047-.011-.053.013c-.018.078.094.036.053-.013Z"/><path class="b" d="M10.724,12.397c.226.04.567.085.983.085.46,0,.631-.054.758.069.152.148-.009.308.011,1.108.014.549.079.928.088.998,0,.005,0,.024.007.047.004.014.01.024.014.029l-.021.002c-.63-.76-1.371-1.463-1.84-2.34Z"/><path class="y" d="M13.458,11.714c-.056.056-.098.085-.158.131h-1.288c-.044.005-.056-.002-.059-.008-.012-.029.13-.119.242-.172.097-.045.182-.069.24-.081.341.043.681.087,1.022.13Z"/><path class="aa" d="M13.642,11.608c.007.022-.017.063-.026.079-.046.081-.098.153-.16.22-.125.133-.259.205-.283.22-.558.345-.671.419-.802.37-.046-.017-.079-.043-.099-.062.237-.083.429-.181.573-.267.108-.064.274-.162.438-.312l.192-.178h0c.037-.038.067-.072.088-.096.029-.005.053.014.079.026Z"/><path class="d" d="M9.935,11.871s.129.013,0,.026v-.026Z"/><path class="i" d="M7.201,8.979v.026c.089.153.245.271.342.421.178.275-.034.117-.093.236-.05.102.17.509-.248.42l-.106-.998c0-.018,0-.035,0-.053l.105-.053Z"/><path class="s" d="M11.813,2.452c.038.003.095.004.163-.006.136-.019.189-.076.288-.081.109-.006.198.013.288.039.429.121.538.294.688.23.087-.037.109-.121.234-.141.023-.004.07-.015.148.011.055.018.324.173.343.174.206.007.351-.332.552-.361.181-.026.457.231.891,1.296.127.01.253.019.38.029-.005.194-.01.39-.012.588-.003.241-.005.478-.004.712-.145-.406-.291-.811-.436-1.217-1.303.088-2.296.099-2.324-.071-.022-.13.518-.406.489-.445-.004-.005-.013-.006-.028-.002-.169.065-.635.689-.934.526.017-.083-.042-.045-.105-.053-.137-.029-.239-.029-.368-.026-.066-.049-.159-.021-.237-.026-.014-.17-.024-.35-.028-.539-.004-.225,0-.438.012-.636ZM15.282,4.432"/><path class="j" d="M13.695,9.505c.181.021,1.831,1.833,2.129,2.051-.465.083-1.783.113-2.208,0,.029-.038.017-.048.026-.079.007-.025.019-.04.026-.079.045-.542.052-1.15.026-1.697-.002-.05.027-.106-.053-.091,0-.026-.002-.053,0-.079.015-.004.044-.027.053-.026Z"/><path class="i" d="M11.802,7.35c-.013.309-.08,1.993,0,2.051.014.01.028.018.028.018.055.031.11.037.147.038-.102.043-.204.086-.306.128-.092-.004-.512-.008-.561-.03-.071-.032-.038-.148-.043-.207-.062-.753.034-1.578-.026-2.34.06-.014.67.327.762.342Z"/><path class="q" d="M13.642,9.61c.079-.015.051.04.053.091.017.518.033,1.105-.026,1.618-.037-.566-.042-1.142-.026-1.709Z"/><path class="q" d="M13.713,9.466c-.006.013-.012.026-.018.039-.009-.001-.037.023-.053.026-.002-.003-.016-.024-.009-.043.008-.022.043-.037.08-.022Z"/><path class="v" d="M13.642,11.582v.026c-.018-.008-.035-.019-.053-.026.008-.01.019-.017.026-.026.004.011.015.025.026.026Z"/><path class="i" d="M12.538,9.584c-.009,0-.018,0-.026,0h.026Z"/><path class="f" d="M13.537,7.139h-.053c.017,0,.035-.002.053,0Z"/><path class="f" d="M14.168,7.744c-.001-.017.001-.035,0-.053v.053Z"/><path class="v" d="M15.851,11.552c-.139.109-.289.24-.439.396-.086.089-.162.176-.231.261-.012.044-.04.118-.109.167-.057.04-.115.048-.141.048-.629-.001-1.138-.23-1.273-.604-.025-.068-.042-.155-.034-.264.326.042.699.072,1.112.071.414,0,.789-.031,1.115-.075Z"/><path class="v" d="M15.825,12.48c-.078.133-.174.28-.294.433-.116.148-.231.273-.338.378-.19.161-.308.224-.355.19-.025-.019-.03-.066-.014-.141.639-.552.855-.802.916-.923.009-.018.054-.111.077-.104.022.006.016.097.008.168Z"/><path class="v" d="M15.193,13.291c-.452.59-1.158.934-1.84,1.183.692-.295,1.293-.703,1.84-1.209v.026Z"/><path class="y" d="M12.801,7.323c.187-.002.376-.002.566-.002.219,0,.436.001.65.004-.003.032-.009.061-.017.088-.1.327-.548.44-.646.463-.249.201-.339.218-.371.19-.04-.035.105-.252-.008-.402-.013-.017-.312-.073-.33-.222-.012-.1.197.039.157-.118Z"/><path class="q" d="M11.302,3.617c.229-.067.729-.213,1.26.003.134.055.358.168.577.407.074.08.15.167.225.262.17.215.304.424.41.616l.578-.421c-.083.105-.117.286-.128.299-.039.045-.176-.006-.161.095.545-.053,1.089-.106,1.634-.159.027.075.054.15.081.225.001.105.002.21.003.315-.7.024-1.107.025-1.353.021,0,0-.509-.008-.891-.008,0,0-.131,0-.131,0-.061-.002-.123.002-.184,0,.055-.196-.204-.063-.261-.107-.015-.011-.067-.275-.111-.349-.041-.069-.292-.393-.351-.438-.197-.142-.288-.088-.46-.132l-.158-.079c-.061-.018-.123-.035-.184-.053-.051-.008-.123-.018-.21-.026-.139-.013-.209-.019-.283-.012-.118.012-.146.039-.269.038-.112,0-.142-.024-.153-.033-.052-.044-.065-.131-.039-.219.125-.076.314-.175.56-.247Z"/><path class="o" d="M10.645,3.853c.067-.028.163-.052.236-.052-.157.138-.047.221.079.315-.233.07-.685.442-.815.657-.057-.034-.184.085-.197.079-.037-.018.031-.183-.145.026.091-.433.448-.838.841-1.025Z"/><path class="o" d="M11.466,4.085s-.003-.005,0-.005c.144-.024.356-.037.574.035.217.071.426.222.482.262.002.001.003.002.004.003.051.039.227.172.351.438.094.2.065.274.146.314.084.04.18-.007.221.054.017.025.022.064.005.086-.015.02-.044.02-.075.02-.139,0-.21-.001-.282-.021-.064-.018-.091-.034-.113-.056-.006-.006-.017-.018-.039-.058-.032-.057-.048-.102-.061-.135,0,0-.022-.056-.063-.143-.044-.094-.093-.157-.131-.211-.125-.177-.273-.291-.356-.348-.254-.173-.514-.219-.663-.233Z"/><path class="o" d="M15.772,5.246c-.028.048-.943.025-1.078.026l1.078-.026Z"/><path class="o" d="M11.854,4.142l-.079-.026c.065.013.075.025.079.026Z"/><path class="o" d="M13.958,5.273c-.044,0-.088,0-.131,0h.131Z"/><path class="o" d="M13.747,5.273h-.079c.025,0,.052,0,.079,0Z"/><path class="o" d="M11.066,4.116l.026-.026c-.007.001-.018.025-.026.026Z"/><path class="o" d="M11.223,4.09c-.009,0-.018,0-.026,0h.026Z"/><path class="i" d="M7.254,5.299c.148.175.281.366.447.526v.026c.144.207.477.563.578.789-.397.083-.745-.008-1.13-.026-.1-.362-.042-.923.026-1.314.026-.002.053.003.079,0Z"/><path class="g" d="M7.711,4.17c.359.288.744.526.707.587-.021.023-.17-.002-.224.107-.087.129-.708.736-1.019.435-.013-.038-.03-.094-.039-.164-.028-.204.027-.361.056-.465.038-.137.075-.338.062-.607.145-.074.392.031.458.107Z"/><path class="q" d="M7.49,3.538l.026-.026c-.006.011-.022.018-.026.026Z"/><path class="v" d="M7.359,9.137c.087-.013.107.079.184.105.002.015-.004.05,0,.053.01.006.079-.002.105,0,.01.017.016.036.026.053h-.105c-.04-.093-.124-.123-.21-.21Z"/><path class="v" d="M7.543,9.242c.06.021.181-.046.158.053-.041-.003-.128.006-.158,0-.004-.002.002-.038,0-.053Z"/><path class="u" d="M7.674,7.06c-.043-.011-.056-.057-.079-.079.12-.066.075.073.079.079Z"/><path class="q" d="M8.779,5.167c.206.189.408.379.605.578-.208-.173-.466-.361-.605-.578Z"/><path class="j" d="M9.383,5.746c.084.07.2.118.237.237-.097-.063-.158-.157-.237-.237Z"/><path class="i" d="M9.225,8.611l-.026-.026c.01.007.017.019.026.026Z"/><path class="i" d="M9.173,8.559l-.026-.026c.01.006.017.02.026.026Z"/><path class="p" d="M12.684,3.679c.52-.33.725-.47.76-.507.006-.006.03-.034.053-.028,0,0,.02.005.03.042.007.024-.014.104-.476.41.118.016.236.031.355.047-.108-.005-.197-.003-.263,0-.15.007-.19.021-.21.052-.028.042-.012.1,0,.131-.038-.021-.077-.043-.117-.067-.046-.027-.09-.054-.132-.081Z"/><path class="p" d="M15.403,3.616c.004.023-.072.022-.053.105-.064.003-.163.067-.21.105v-.158l-1.63-.026c.627-.034,1.265-.045,1.893-.026Z"/><path class="w" d="M15.351,3.722c.051.216.232.992.342,1.13l-1.603.026c-.015-.102.122-.05.161-.095.038-.355.61-.72.89-.956.047-.038.146-.102.21-.105Z"/><path class="ab" d="M9.699,14.395c-.202-.049-1.344-1.03-1.341-1.117.005-.144.207.079.23.086.341.11.953.065,1.112.466,0,0,0,.565,0,.565Z"/><path class="ab" d="M9.646,11.582c.011.011.015.042.026.053-.633.334-1.421.053-2.103-.026v-.053c.692.024,1.384.035,2.077.026Z"/><path class="ab" d="M7.569,11.556v.053c-.073-.009-.18.036-.158-.053.052.002.105-.002.158,0Z"/><path class="i" d="M7.254,10.136c.041.049-.07.091-.053.013.005-.024.05-.016.053-.013Z"/><path class="v" d="M13.695,11.635l.131.131c-.106-.023-.103-.097-.21-.079.002-.002.024-.046.026-.053.018,0,.035,0,.053,0Z"/><path class="q" d="M13.274,4.274c.015-.034.028-.047.04-.048.031-.002.06.054.064.062.07.124.725.057,1.017.057,0,0,.564-.001,1.35.586.007.005.02.016.022.032.007.058-.139.118-.192.126-.189.031-1.844.009-1.94-.054-.035-.023-.28-.632-.361-.762Z"/><path class="w" d="M11.723,3.59c-.009,0-.018,0-.026,0h.026Z"/><path class="y" d="M8.805,6.351c-.179.085-.326.24-.526.289-.038-.125-.144-.209-.21-.315-.001-.002.034-.024.021-.045-.026-.041-.289-.291-.166-.297.051-.002.435.215.539.25.115.038.266-.021.342.118Z"/><path class="aa" d="M7.701,5.851v-.026c.011.012.014.013,0,.026Z"/><path class="v" d="M9.725,9.058l-.061,1.308-2.121-.94c-.12-.132-.239-.265-.359-.397l.017-.05,2.524.079Z"/><path class="g" d="M7.149,6.613l-.053,2.419c.877.011,1.754.023,2.632.034-.86-.818-1.719-1.635-2.579-2.453Z"/><path class="r" d="M7.889,2.661c.008.005-.027.068,0,.097.009.01.027.016.061.01-.058.103-.118.207-.179.312-.059.101-.118.201-.177.299-.035.053-.07.105-.105.158-.299.88-.34,1.422-.315,1.761.004.061.02.236.026.485.01.386-.009.701-.026.908-.012.39-.063.852-.053,1.236l-.027,1.032-.123.013c-.002-.039-.016-.292-.018-.332-.119-2.154-.175-3.086.012-4.099.015-.08.028-.147.051-.242.047-.192.834-1.663.872-1.639Z"/><polygon class="u" points="7.201 6.613 9.856 6.219 9.883 6.797 7.971 7.123 7.201 6.613"/><path class="y" d="M7.318,5.372l1.003-.608,1.535,1.455c-.192.101-.507.235-.916.28-.321.035-.592.003-.782-.035l-.841-1.093Z"/><path class="q" d="M8.321,4.764l1.535,1.455c-.027-.3-.017-.62.047-.952.005-.023.009-.046.014-.069.007-.018.014-.036.022-.054.059-.141.13-.264.206-.371l-.664.265-1.063-.282-.097.007Z"/><path class="q" d="M10.146,4.773c-.106,0-.211-.001-.317-.002-.502-.003-1.005-.005-1.507-.008.267.157.534.315.801.472l1.023-.463Z"/><polygon class="g" points="7.381 3.859 8.506 4.769 8.321 4.764 8.121 4.878 7.304 4.166 7.381 3.859"/><path class="w" d="M15.353,3.721c.14.404.28.808.419,1.212-.659-.009-1.317-.019-1.976-.028.519-.395,1.038-.789,1.556-1.184Z"/><path class="s" d="M8.829,2.128c.3.154.503.324.634.454.445.441.61.615.61.615.117.125.204.22.3.202.122-.023.202-.209.218-.317.023-.16.042-.327.056-.501.037-.468.03-.899,0-1.282l-1.816.829Z"/><path class="p" d="M12.681,3.683c.372.408.743.815,1.115,1.223l1.556-1.184c.041-.057.056-.105.043-.146-.07-.224-.975-.188-2.715.107Z"/></svg>